<?xml version="1.0" encoding="UTF-8"?>
<svg xmlns="http://www.w3.org/2000/svg" xmlns:xlink="http://www.w3.org/1999/xlink" width="300" height="300" viewBox="0 0 300 300">
<path fill-rule="nonzero" fill="rgb(0%, 0%, 100%)" fill-opacity="0.996078" d="M 288.347656 153.644531 C 288.347656 229.09375 226.640625 290.257812 150.523438 290.257812 C 74.402344 290.257812 12.695312 229.09375 12.695312 153.644531 C 12.695312 78.191406 74.402344 17.027344 150.523438 17.027344 C 226.640625 17.027344 288.347656 78.191406 288.347656 153.644531 Z M 288.347656 153.644531 "/>
<path fill-rule="nonzero" fill="rgb(0%, 86.666667%, 0%)" fill-opacity="1" d="M 4.96875 124.59375 C 4.410156 122.605469 3.699219 121.242188 2.824219 120.503906 C 1.949219 119.769531 0.640625 119.398438 -1.09375 119.398438 L -2.1875 119.398438 L -2.1875 118.417969 L 20.988281 118.417969 L 20.988281 119.398438 L 18.953125 119.398438 C 17.160156 119.398438 15.835938 119.675781 14.992188 120.226562 C 14.160156 120.765625 13.746094 121.707031 13.746094 123.0625 C 13.746094 124.355469 14.019531 125.867188 14.578125 127.605469 L 25.039062 162.089844 C 26.992188 168.464844 28.503906 174.074219 29.570312 178.90625 C 30.191406 176.464844 30.925781 173.75 31.757812 170.75 C 32.601562 167.757812 33.421875 164.871094 34.207031 162.089844 L 43.816406 128.382812 C 44.089844 127.347656 44.308594 126.445312 44.472656 125.671875 C 44.648438 124.90625 44.738281 124.191406 44.738281 123.539062 C 44.738281 122.003906 44.28125 120.929688 43.378906 120.328125 C 42.488281 119.710938 41.066406 119.398438 39.113281 119.398438 L 34.121094 119.398438 L 34.121094 118.417969 L 54.695312 118.417969 L 54.695312 119.398438 L 51.652344 119.398438 C 50.078125 119.398438 48.816406 119.9375 47.886719 121.003906 C 46.96875 122.058594 46.117188 124.003906 45.328125 126.828125 L 27.882812 187.414062 L 24.273438 187.414062 Z M 68.167969 126.351562 C 67.097656 126.351562 66.21875 125.949219 65.519531 125.144531 C 64.816406 124.34375 64.46875 122.9375 64.46875 120.929688 C 64.46875 118.871094 64.816406 117.460938 65.519531 116.6875 C 66.21875 115.921875 67.097656 115.53125 68.167969 115.53125 C 69.171875 115.53125 70.039062 115.921875 70.769531 116.6875 C 71.5 117.460938 71.863281 118.871094 71.863281 120.929688 C 71.863281 122.9375 71.5 124.34375 70.769531 125.144531 C 70.039062 125.949219 69.171875 126.351562 68.167969 126.351562 Z M 56.632812 187.414062 L 56.632812 186.433594 L 57.726562 186.433594 C 60.1875 186.433594 61.957031 185.859375 63.023438 184.703125 C 64.085938 183.550781 64.621094 181.652344 64.621094 179.007812 L 64.621094 144.121094 C 64.621094 141.410156 64.085938 139.476562 63.023438 138.320312 C 61.957031 137.167969 60.1875 136.589844 57.726562 136.589844 L 57.464844 136.589844 L 57.464844 135.613281 L 72.542969 135.613281 L 72.542969 178.53125 C 72.542969 181.359375 73.074219 183.386719 74.140625 184.601562 C 75.21875 185.828125 76.992188 186.433594 79.460938 186.433594 L 80.554688 186.433594 L 80.554688 187.414062 Z M 84.839844 187.414062 L 84.839844 186.433594 L 87.289062 186.433594 C 91.898438 186.433594 94.207031 184.121094 94.207031 179.484375 L 94.207031 125.949219 C 94.207031 121.582031 91.898438 119.398438 87.289062 119.398438 L 84.839844 119.398438 L 84.839844 118.417969 L 101.273438 118.417969 L 133.382812 173.585938 L 133.382812 126.351562 C 133.382812 121.71875 131.074219 119.398438 126.46875 119.398438 L 124.101562 119.398438 L 124.101562 118.417969 L 143.582031 118.417969 L 143.582031 119.398438 L 141.132812 119.398438 C 136.519531 119.398438 134.214844 121.71875 134.214844 126.351562 L 134.214844 187.414062 L 131.699219 187.414062 L 95.039062 124.417969 L 95.039062 179.484375 C 95.039062 184.121094 97.339844 186.433594 101.953125 186.433594 L 104.316406 186.433594 L 104.316406 187.414062 Z M 151.578125 141.710938 C 151.007812 139.773438 150.328125 138.433594 149.539062 137.695312 C 148.765625 136.960938 147.667969 136.589844 146.257812 136.589844 L 146.257812 135.613281 L 167.335938 135.613281 L 167.335938 136.589844 L 165.320312 136.589844 C 163.511719 136.589844 162.167969 136.867188 161.292969 137.417969 C 160.429688 137.957031 160.003906 138.898438 160.003906 140.253906 C 160.003906 141.296875 160.308594 142.808594 160.921875 144.796875 L 167.574219 166.15625 C 168.320312 168.484375 168.953125 170.535156 169.480469 172.304688 C 170.015625 174.0625 170.550781 175.832031 171.078125 177.601562 C 171.613281 179.375 172.222656 181.484375 172.894531 183.925781 C 173.402344 182.070312 173.863281 180.429688 174.273438 179.007812 C 174.695312 177.589844 175.246094 175.78125 175.9375 173.585938 L 184.429688 145.375 C 184.71875 144.359375 184.941406 143.460938 185.105469 142.6875 C 185.28125 141.90625 185.371094 141.195312 185.371094 140.554688 C 185.371094 139.070312 184.871094 138.039062 183.882812 137.46875 C 182.902344 136.886719 181.347656 136.589844 179.21875 136.589844 L 176.441406 136.589844 L 176.441406 135.613281 L 194.472656 135.613281 L 194.472656 136.589844 L 192.109375 136.589844 C 190.535156 136.589844 189.277344 137.144531 188.347656 138.246094 C 187.425781 139.339844 186.539062 141.296875 185.699219 144.121094 L 172.71875 187.414062 L 166.066406 187.414062 Z M 208.199219 126.351562 C 207.128906 126.351562 206.25 125.949219 205.550781 125.144531 C 204.847656 124.34375 204.5 122.9375 204.5 120.929688 C 204.5 118.871094 204.847656 117.460938 205.550781 116.6875 C 206.25 115.921875 207.128906 115.53125 208.199219 115.53125 C 209.203125 115.53125 210.070312 115.921875 210.800781 116.6875 C 211.53125 117.460938 211.894531 118.871094 211.894531 120.929688 C 211.894531 122.9375 211.53125 124.34375 210.800781 125.144531 C 210.070312 125.949219 209.203125 126.351562 208.199219 126.351562 Z M 196.664062 187.414062 L 196.664062 186.433594 L 197.757812 186.433594 C 200.21875 186.433594 201.988281 185.859375 203.054688 184.703125 C 204.117188 183.550781 204.652344 181.652344 204.652344 179.007812 L 204.652344 144.121094 C 204.652344 141.410156 204.117188 139.476562 203.054688 138.320312 C 201.988281 137.167969 200.21875 136.589844 197.757812 136.589844 L 197.496094 136.589844 L 197.496094 135.613281 L 212.574219 135.613281 L 212.574219 178.53125 C 212.574219 181.359375 213.105469 183.386719 214.171875 184.601562 C 215.25 185.828125 217.023438 186.433594 219.492188 186.433594 L 220.585938 186.433594 L 220.585938 187.414062 Z M 224.039062 187.414062 L 224.039062 186.433594 L 224.714844 186.433594 C 227.179688 186.433594 228.945312 185.859375 230.011719 184.703125 C 231.074219 183.550781 231.609375 181.652344 231.609375 179.007812 L 231.609375 144.121094 C 231.609375 141.410156 231.074219 139.476562 230.011719 138.320312 C 228.945312 137.167969 227.179688 136.589844 224.714844 136.589844 L 224.453125 136.589844 L 224.453125 135.613281 L 239.445312 135.613281 L 239.445312 144.796875 L 239.621094 144.796875 C 240.410156 141.972656 241.460938 139.828125 242.773438 138.371094 C 244.097656 136.917969 245.574219 135.9375 247.195312 135.4375 C 248.824219 134.921875 250.488281 134.65625 252.183594 134.65625 C 255.160156 134.65625 257.835938 135.480469 260.214844 137.117188 C 262.609375 138.761719 264.363281 141.875 265.492188 146.453125 L 265.667969 146.453125 C 266.394531 142.976562 267.417969 140.398438 268.730469 138.722656 C 270.054688 137.035156 271.53125 135.9375 273.152344 135.4375 C 274.78125 134.921875 276.390625 134.65625 277.964844 134.65625 C 287.449219 134.65625 292.191406 141.070312 292.191406 153.882812 L 292.191406 178.53125 C 292.191406 181.359375 292.722656 183.386719 293.789062 184.601562 C 294.867188 185.828125 296.640625 186.433594 299.109375 186.433594 L 299.371094 186.433594 L 299.371094 187.414062 L 284.292969 187.414062 L 284.292969 151.949219 C 284.292969 146.597656 283.640625 142.703125 282.34375 140.253906 C 281.042969 137.8125 278.960938 136.589844 276.105469 136.589844 C 272.851562 136.589844 270.359375 137.984375 268.644531 140.757812 C 266.9375 143.519531 266.082031 147.476562 266.082031 152.628906 L 266.082031 178.53125 C 266.082031 181.359375 266.613281 183.386719 267.679688 184.601562 C 268.742188 185.828125 270.515625 186.433594 273 186.433594 L 273.238281 186.433594 L 273.238281 187.414062 L 258.160156 187.414062 L 258.160156 151.949219 C 258.160156 146.597656 257.492188 142.703125 256.167969 140.253906 C 254.855469 137.8125 252.710938 136.589844 249.734375 136.589844 C 242.929688 136.589844 239.535156 142.386719 239.535156 153.984375 L 239.535156 178.53125 C 239.535156 181.359375 240.0625 183.386719 241.132812 184.601562 C 242.210938 185.828125 243.980469 186.433594 246.449219 186.433594 L 246.691406 186.433594 L 246.691406 187.414062 Z M -2.1875 84.128906 "/>
</svg>
